<svg width="121" height="120" viewBox="0 0 121 120" fill="none" xmlns="http://www.w3.org/2000/svg">
<path d="M16.9249 108.005L7.29492 0H113.105L103.465 107.985L60.1349 120L16.9249 108.005Z" fill="#E44D26"/>
<path d="M60.2 110.82L95.215 101.115L103.45 8.83008H60.2V110.82Z" fill="#F16529"/>
<path d="M60.1999 48.8901H42.6699L41.4599 35.3251H60.1999V22.0801H26.9849L27.2999 25.6301L30.5549 62.1351H60.1999V48.8901ZM60.1999 83.2901L60.1399 83.3051L45.3899 79.3201L44.4449 68.7551H31.1499L33.0049 89.5551L60.1399 97.0851L60.1999 97.0701V83.2901Z" fill="#EBEBEB"/>
<path d="M60.1549 48.89V62.135H76.4649L74.9249 79.315L60.1499 83.3V97.08L87.3049 89.5549L87.5049 87.3149L90.6199 52.44L90.9449 48.885H87.3749L60.1549 48.89ZM60.1549 22.08V35.325H92.1499L92.4149 32.345L93.0199 25.63L93.3349 22.075L60.1549 22.08Z" fill="white"/>
</svg>
