<svg width="120" height="120" viewBox="0 0 120 120" fill="none" xmlns="http://www.w3.org/2000/svg">
<path d="M0 0V120H120V0H0ZM62.6304 102.653C60.8627 106.246 57.4847 108.608 53.5736 109.747C47.5613 111.127 41.8137 110.341 37.5345 107.772C34.6702 106.016 32.4348 103.313 30.9202 100.199C33.9647 98.3397 37.0015 96.4686 40.046 94.6089C40.1265 94.6434 40.3643 95.0767 40.6864 95.6365C41.8482 97.5882 42.8528 98.9686 44.8275 99.9348C46.7676 100.594 51.0199 101.02 52.6649 97.6074C53.6695 95.8742 53.3474 90.184 53.3474 84.0146C53.3474 74.3175 53.3934 64.7814 53.3934 54.9655H64.6166C64.6166 65.2722 64.6741 75.6058 64.6166 85.8972C64.6396 92.2048 65.1879 97.941 62.6304 102.653ZM109.195 99.4824C105.295 112.83 83.5391 113.263 74.8505 104.444C73.0138 102.37 71.8635 101.285 70.7669 98.888C75.3873 96.2308 75.3873 96.2308 79.8811 93.6311C82.3236 97.385 84.5821 99.4479 88.6426 100.291C94.1526 100.962 99.6971 99.0721 98.4548 93.2209C97.1779 88.4394 87.1741 87.2776 80.3643 82.1664C73.4509 77.523 71.8328 66.2423 77.5115 59.7968C79.4057 57.4118 82.6342 55.6327 86.0199 54.7776L89.5552 54.3213C96.342 54.1833 100.587 55.9739 103.7 59.4555C104.567 60.3336 105.272 61.2807 106.599 63.3359C102.983 65.6403 102.995 65.6173 97.8144 68.9724C96.7063 66.5874 94.8735 65.092 92.9333 64.444C89.9233 63.5314 86.1235 64.5245 85.3374 67.7071C85.0652 68.6886 85.1227 69.6012 85.556 71.2193C86.7753 74.0031 90.8704 75.2109 94.5437 76.898C105.119 81.1887 108.689 85.7822 109.567 91.2577C110.41 95.9701 109.36 99.0261 109.202 99.4824H109.195Z" fill="#F0DB4F"/>
</svg>
