<svg width="150" height="32" viewBox="0 0 150 32" fill="none" xmlns="http://www.w3.org/2000/svg">
<g clip-path="url(#clip0_258_141)">
<path d="M99.7462 0.771484H125.825V5.60651H115.47V30.9618H110.292V5.60651H99.7462V0.771484ZM56.7259 0.771484V5.60651H35.7868V13.373H52.6523V18.17H35.7868V26.1649H56.7259V30.9618H30.6472V0.771484H56.802H56.7259ZM69.7843 0.771484H63.0076L87.297 30.9999H94.1117L81.9289 15.8857L94.1117 0.809555H87.297L78.5406 11.6979L69.7843 0.809555V0.771484ZM76.7513 22.3578L73.3249 18.17L63.0076 30.9999H69.7843L76.7513 22.3578Z" fill="white"/>
<path d="M30.8376 30.9618L6.47208 0.771484H0V30.9618H5.17767V7.24357L24.2893 30.9618H30.8376ZM127.005 30.8096C126.624 30.8096 126.32 30.6573 126.053 30.4288C125.787 30.2004 125.635 29.8197 125.635 29.439C125.635 29.0583 125.749 28.7537 126.015 28.4872C126.282 28.2207 126.624 28.1065 127.005 28.1065C127.386 28.1065 127.69 28.2207 127.957 28.4872C128.18 28.6907 128.325 28.9656 128.366 29.2645C128.408 29.5635 128.344 29.8676 128.185 30.1243C128.066 30.3239 127.9 30.4909 127.7 30.6104C127.501 30.73 127.275 30.7984 127.043 30.8096H127.005ZM135.838 18.0557H138.122V26.9263C138.122 27.7258 137.97 28.4491 137.627 29.0202C137.284 29.5948 136.781 30.0576 136.18 30.3527C135.571 30.6573 134.848 30.8476 134.01 30.8476C133.249 30.8476 132.602 30.6953 131.992 30.4669C131.383 30.2385 130.926 29.7816 130.584 29.2486C130.241 28.7537 130.051 28.1065 130.051 27.3451H132.335C132.373 27.6497 132.449 27.9542 132.602 28.1826C132.754 28.4111 132.982 28.6395 133.211 28.7537C133.477 28.906 133.782 28.9441 134.124 28.9441C134.505 28.9441 134.81 28.8679 135.038 28.7156C135.307 28.5552 135.519 28.3159 135.647 28.0304C135.761 27.7258 135.838 27.3451 135.838 26.8882V18.0938V18.0557ZM147.602 21.5202C147.578 21.2667 147.498 21.0218 147.366 20.8041C147.234 20.5864 147.054 20.4017 146.84 20.2639C146.349 19.9623 145.778 19.8163 145.203 19.8451C144.708 19.8451 144.289 19.9212 143.947 20.0354C143.604 20.1877 143.338 20.4162 143.185 20.6446C143.012 20.8561 142.909 21.1156 142.888 21.388C142.868 21.6604 142.932 21.9325 143.071 22.1674C143.185 22.3578 143.338 22.5101 143.566 22.6243L144.251 23.005L145.013 23.1953L146.231 23.4999C146.726 23.6141 147.183 23.7664 147.64 23.9568C148.076 24.1264 148.486 24.3571 148.858 24.642C149.225 24.9394 149.519 25.3173 149.717 25.7463C149.915 26.1754 150.012 26.6442 150 27.1167C150 27.8781 149.81 28.5253 149.429 29.0583C149.009 29.6535 148.428 30.1159 147.754 30.3908C147.069 30.6953 146.193 30.8476 145.165 30.8476C144.175 30.8476 143.299 30.6953 142.576 30.3908C141.815 30.0862 141.282 29.6294 140.863 29.0583C140.439 28.4281 140.214 27.6856 140.216 26.9263H142.5C142.513 27.3202 142.649 27.7003 142.888 28.014C143.126 28.3277 143.456 28.5596 143.832 28.6776C144.213 28.8299 144.67 28.906 145.127 28.906C145.622 28.906 146.079 28.8299 146.459 28.6776C146.84 28.5253 147.145 28.2969 147.373 28.0304C147.571 27.7668 147.678 27.4462 147.678 27.1167C147.678 26.774 147.602 26.5075 147.411 26.2791C147.166 26.0713 146.898 25.8925 146.612 25.7461L145.393 25.3654L143.947 24.9847C142.881 24.7182 142.043 24.3375 141.434 23.7664C141.13 23.4953 140.89 23.1599 140.732 22.7845C140.574 22.4091 140.502 22.0032 140.52 21.5964C140.514 20.9069 140.743 20.2358 141.168 19.6928C141.577 19.1032 142.144 18.6413 142.805 18.3603C143.566 18.0557 144.327 17.9035 145.241 17.9035C146.117 17.9035 146.916 18.0557 147.602 18.3603C148.287 18.6649 148.82 19.1217 149.239 19.6547C149.619 20.1877 149.81 20.7969 149.81 21.5583H147.602V21.5202Z" fill="white"/>
</g>
<defs>
<clipPath id="clip0_258_141">
<rect width="150" height="30.4569" fill="white" transform="translate(0 0.771484)"/>
</clipPath>
</defs>
</svg>
