<svg width="126" height="112" viewBox="0 0 126 112" fill="none" xmlns="http://www.w3.org/2000/svg">
<path d="M62.6 67.4001C68.896 67.4001 74 62.2961 74 56.0001C74 49.7041 68.896 44.6001 62.6 44.6001C56.3039 44.6001 51.2 49.7041 51.2 56.0001C51.2 62.2961 56.3039 67.4001 62.6 67.4001Z" fill="#61DAFB"/>
<path d="M105.9 37.2001C103.7 36.4001 101.4 35.6001 99 34.9001C99.6 32.5001 100.1 30.1001 100.5 27.8001C102.6 14.6001 100.3 5.3001 93.9 1.7001C92 0.600097 89.9 0.100098 87.5 0.100098C80.5 0.100098 71.6 5.3001 62.6 14.0001C53.6 5.3001 44.7 0.100098 37.7 0.100098C35.3 0.100098 33.2 0.600097 31.3 1.7001C24.9 5.4001 22.6 14.7001 24.7 27.8001C25.1 30.1001 25.6 32.5001 26.2 34.9001C23.8 35.6001 21.5 36.3001 19.3 37.2001C6.8 42.0001 0 48.6001 0 56.0001C0 63.4001 6.9 70.0001 19.3 74.8001C21.5 75.6001 23.8 76.4001 26.2 77.1001C25.6 79.5001 25.1 81.9001 24.7 84.2001C22.6 97.4001 24.9 106.7 31.3 110.3C33.2 111.4 35.3 111.9 37.7 111.9C44.8 111.9 53.7 106.7 62.6 98.0001C71.6 106.7 80.5 111.9 87.5 111.9C89.9 111.9 92 111.4 93.9 110.3C100.3 106.6 102.6 97.3001 100.5 84.2001C100.1 81.9001 99.6 79.5001 99 77.1001C101.4 76.4001 103.7 75.7001 105.9 74.8001C118.4 70.0001 125.2 63.4001 125.2 56.0001C125.2 48.6001 118.4 42.0001 105.9 37.2001ZM91.1 6.7001C95.2 9.1001 96.6 16.5001 94.9 27.0001C94.6 29.1001 94.1 31.3001 93.5 33.6001C88.3 32.4001 82.8 31.6001 77 31.1001C73.6 26.3001 70.1 22.0001 66.6 18.1001C74 10.8001 81.5 5.8001 87.6 5.8001C88.9 5.8001 90.1 6.1001 91.1 6.7001ZM79.9 66.0001C78.1 69.2001 76 72.4001 73.8 75.6001C70.1 75.9001 66.4 76.0001 62.6 76.0001C58.7 76.0001 55 75.9001 51.4 75.6001C49.2 72.4001 47.2 69.2001 45.4 66.0001C43.5 62.7001 41.7 59.3001 40.1 56.0001C41.7 52.7001 43.5 49.3001 45.4 46.0001C47.2 42.8001 49.3 39.6001 51.5 36.4001C55.2 36.1001 58.9 36.0001 62.7 36.0001C66.6 36.0001 70.3 36.1001 73.9 36.4001C76.1 39.6001 78.1 42.8001 79.9 46.0001C81.8 49.3001 83.6 52.7001 85.2 56.0001C83.5 59.3001 81.8 62.6001 79.9 66.0001ZM88.2 62.7001C89.7 66.2001 90.9 69.6001 92 73.0001C88.6 73.8001 85 74.4001 81.2 74.9001C82.4 73.0001 83.7 71.0001 84.8 68.9001C86 66.8001 87.1 64.7001 88.2 62.7001ZM62.6 89.8001C60.2 87.2001 57.9 84.4001 55.7 81.5001C58 81.6001 60.3 81.7001 62.6 81.7001C64.9 81.7001 67.2 81.6001 69.5 81.5001C67.3 84.4001 65 87.2001 62.6 89.8001ZM44 74.8001C40.2 74.3001 36.6 73.7001 33.2 72.9001C34.3 69.6001 35.5 66.1001 37 62.6001C38.1 64.6001 39.2 66.7001 40.4 68.7001C41.6 70.9001 42.8 72.8001 44 74.8001ZM37 49.3001C35.5 45.8001 34.3 42.4001 33.2 39.0001C36.6 38.2001 40.2 37.6001 44 37.1001C42.8 39.0001 41.5 41.0001 40.4 43.1001C39.2 45.2001 38.1 47.3001 37 49.3001ZM62.6 22.2001C65 24.8001 67.3 27.6001 69.5 30.5001C67.2 30.4001 64.9 30.3001 62.6 30.3001C60.3 30.3001 58 30.4001 55.7 30.5001C57.9 27.6001 60.2 24.8001 62.6 22.2001ZM84.8 43.2001L81.2 37.2001C85 37.7001 88.6 38.3001 92 39.1001C90.9 42.4001 89.7 45.9001 88.2 49.4001C87.1 47.3001 86 45.2001 84.8 43.2001ZM30.3 27.0001C28.6 16.5001 30 9.1001 34.1 6.7001C35.1 6.1001 36.3 5.8001 37.6 5.8001C43.6 5.8001 51.1 10.7001 58.6 18.1001C55.1 21.9001 51.6 26.3001 48.2 31.1001C42.4 31.6001 36.9 32.5001 31.7 33.6001C31.1 31.3001 30.7 29.1001 30.3 27.0001ZM5.6 56.0001C5.6 51.3001 11.3 46.3001 21.3 42.6001C23.3 41.8001 25.5 41.1001 27.7 40.5001C29.3 45.5001 31.3 50.8001 33.7 56.1001C31.3 61.4001 29.2 66.6001 27.7 71.6001C13.9 67.6001 5.6 61.6001 5.6 56.0001ZM34.1 105.3C30 102.9 28.6 95.5001 30.3 85.0001C30.6 82.9001 31.1 80.7001 31.7 78.4001C36.9 79.6001 42.4 80.4001 48.2 80.9001C51.6 85.7001 55.1 90.0001 58.6 93.9001C51.2 101.2 43.7 106.2 37.6 106.2C36.3 106.2 35.1 105.9 34.1 105.3ZM94.9 85.0001C96.6 95.5001 95.2 102.9 91.1 105.3C90.1 105.9 88.9 106.2 87.6 106.2C81.6 106.2 74.1 101.3 66.6 93.9001C70.1 90.1001 73.6 85.7001 77 80.9001C82.8 80.4001 88.3 79.5001 93.5 78.4001C94.1 80.7001 94.5 82.9001 94.9 85.0001ZM103.9 69.4001C101.9 70.2001 99.7 70.9001 97.5 71.5001C95.9 66.5001 93.9 61.2001 91.5 55.9001C93.9 50.6001 96 45.4001 97.5 40.4001C111.3 44.4001 119.6 50.4001 119.6 56.0001C119.6 60.7001 113.8 65.7001 103.9 69.4001Z" fill="#61DAFB"/>
</svg>
