<svg width="121" height="120" viewBox="0 0 121 120" fill="none" xmlns="http://www.w3.org/2000/svg">
<path d="M92.7 47.5499C88.9502 46.2585 85.6404 43.9364 83.15 40.8499C80.4052 37.4111 76.9102 34.6456 72.9325 32.765C68.9547 30.8845 64.5994 29.9386 60.2 29.9999C54.2818 29.5808 48.4229 31.4061 43.79 35.1125C39.1571 38.8188 36.0902 44.1341 35.2 49.9999C36.9533 47.0661 39.5922 44.7643 42.7369 43.4255C45.8816 42.0868 49.37 41.7802 52.7 42.5499C56.4434 43.879 59.7479 46.2146 62.25 49.2999C65.0098 52.7113 68.5114 55.4482 72.4883 57.3024C76.4652 59.1565 80.8127 60.0791 85.2 59.9999C91.1181 60.419 96.977 58.5937 101.61 54.8874C106.243 51.1811 109.31 45.8657 110.2 39.9999C108.478 42.9688 105.848 45.3054 102.697 46.6649C99.5457 48.0244 96.0409 48.3347 92.7 47.5499ZM27.7 72.4499C31.4497 73.7414 34.7595 76.0635 37.25 79.1499C39.9947 82.5888 43.4897 85.3542 47.4674 87.2348C51.4452 89.1154 55.8005 90.0612 60.2 89.9999C66.1181 90.419 71.977 88.5937 76.6099 84.8874C81.2428 81.1811 84.3097 75.8657 85.2 69.9999C83.4466 72.9337 80.8077 75.2356 77.663 76.5743C74.5183 77.9131 71.0299 78.2196 67.7 77.4499C63.9565 76.1209 60.652 73.7853 58.15 70.6999C55.3827 67.297 51.8797 64.5661 47.9045 62.7127C43.9293 60.8594 39.5855 59.9318 35.2 59.9999C29.2818 59.5808 23.4229 61.4061 18.79 65.1125C14.1571 68.8188 11.0902 74.1341 10.2 79.9999C11.9215 77.0311 14.552 74.6944 17.7031 73.3349C20.8542 71.9754 24.359 71.6652 27.7 72.4499Z" fill="#007ACC"/>
</svg>
